<svg xmlns="http://www.w3.org/2000/svg" xmlns:xlink="http://www.w3.org/1999/xlink" height="300px" width="300px" fill="#000000" version="1.1" x="0px" y="0px" viewBox="0 0 100 100" enable-background="new 0 0 100 100" xml:space="preserve"><rect x="5" y="5" fill="none" width="90" height="90"/><path d="M42.487,35.444C38.483,31.448,38.46,7.448,38.46,7.448s0.023,24-3.973,28.004c-3.997,4.004-15.997,4.015-15.997,4.015  s12-0.011,16.004,3.985s4.027,27.996,4.027,27.996s-0.023-24,3.973-28.004s15.996-4.015,15.996-4.015S46.49,39.44,42.487,35.444z"/><path d="M70.926,56.917c-2.502-2.497-2.517-17.498-2.517-17.498s0.015,15-2.483,17.502c-2.497,2.503-9.997,2.51-9.997,2.51  s7.5-0.007,10.002,2.49c2.503,2.498,2.517,17.498,2.517,17.498s-0.014-15,2.483-17.503c2.498-2.502,9.998-2.51,9.998-2.51  S73.429,59.415,70.926,56.917z"/><path d="M52.527,77.935c-1.502-1.498-1.51-10.498-1.51-10.498s0.008,9-1.49,10.501c-1.499,1.502-5.999,1.506-5.999,1.506  s4.5-0.004,6.001,1.494c1.501,1.499,1.51,10.499,1.51,10.499s-0.009-9,1.49-10.502c1.498-1.501,5.998-1.506,5.998-1.506  S54.028,79.434,52.527,77.935z"/></svg>